<svg width="840" height="148" viewBox="0 0 840 148" fill="none" xmlns="http://www.w3.org/2000/svg">
<path d="M38.1958 138.212C49.9499 144.495 63.3254 147.535 78.322 147.535C91.2921 147.535 102.844 145.305 113.382 140.644C123.717 136.186 132.432 129.498 139.322 120.784L113.787 97.681C104.465 108.827 93.3187 114.299 80.3486 114.299C72.6476 114.299 65.7573 112.678 59.6775 109.232C53.5978 105.99 48.9366 101.126 45.6941 95.0464C42.4516 88.9667 40.8304 81.8737 40.8304 73.7674C40.8304 65.8637 42.4516 58.7707 45.6941 52.691C48.9366 46.6112 53.5978 41.7475 59.6775 38.3023C65.7573 35.0598 72.6476 33.2359 80.3486 33.2359C93.3187 33.2359 104.465 38.9103 113.787 49.8538L139.322 26.7508C132.432 18.2392 123.717 11.5515 113.382 6.89036C102.844 2.4319 91.2921 0 78.322 0C63.3254 0 49.9499 3.24253 38.1958 9.52491C26.4417 15.8073 17.1195 24.5216 10.4318 35.6677C3.5414 47.0166 0.298859 59.5813 0.298859 73.7674C0.298859 87.9534 3.5414 100.721 10.4318 111.867C17.1195 123.216 26.4417 131.93 38.1958 138.212V138.212Z" fill="white"/>
<path d="M171.286 2.83716V144.697H211.412V2.83716H171.286Z" fill="white"/>
<path d="M254.232 144.697H293.547V120.784L254.232 70.7274V144.697ZM349.886 2.83716V28.5747L389.202 75.9965V2.83716H349.886ZM349.886 78.4284L287.265 2.83716H254.232V21.6843L293.547 69.1062L356.168 144.697H389.202V128.282L349.886 78.2258V78.4284Z" fill="white"/>
<path d="M544.252 2.83716H431.777V33.8438H544.252V2.83716ZM544.252 57.7574H431.777V87.7507H544.252V57.7574ZM431.777 113.691V144.697H544.252V113.691H431.777Z" fill="white"/>
<path d="M598.426 143.279C609.167 146.116 620.313 147.535 631.865 147.535C645.24 147.535 656.792 145.508 666.316 141.455C675.639 137.402 682.732 131.727 687.595 124.837C692.257 117.947 694.689 110.246 694.689 101.734C694.689 92.0065 692.054 84.1029 686.785 78.4285C681.516 72.7541 675.436 68.4983 668.343 65.8637C661.25 63.2292 652.333 60.7973 641.592 58.3654C631.865 56.3388 624.974 54.5149 620.718 52.4883C616.26 50.6644 614.233 47.8272 614.233 43.9767C614.233 40.3289 616.057 37.289 619.705 34.8571C623.353 32.4252 629.027 31.2093 637.134 31.2093C649.699 31.2093 662.871 34.8571 676.449 42.1528L688.811 12.3621C681.921 8.30897 673.815 5.2691 664.898 3.24252C655.778 1.21595 646.659 0 637.336 0C623.556 0 612.004 2.02658 602.682 6.07973C593.36 10.1329 586.267 15.8073 581.606 22.6976C576.742 29.588 574.512 37.4917 574.512 46.0033C574.512 55.9335 576.944 63.8371 582.214 69.5116C587.28 75.3886 593.36 79.6444 600.655 82.279C607.748 84.9135 616.665 87.3454 627.406 89.5747C637.134 91.8039 644.024 93.8305 648.483 95.857C652.941 97.8836 655.17 100.721 655.17 104.774C655.17 112.475 647.469 116.325 632.067 116.325C623.961 116.325 615.652 115.11 607.343 112.475C598.831 110.043 591.536 106.598 585.253 102.342L572.081 131.93C578.768 136.794 587.483 140.442 598.426 143.279V143.279Z" fill="white"/>
<path d="M743.515 143.279C754.256 146.116 765.402 147.535 776.953 147.535C790.329 147.535 801.88 145.508 811.405 141.455C820.727 137.402 827.82 131.727 832.684 124.837C837.345 117.947 839.777 110.246 839.777 101.734C839.777 92.0065 837.142 84.1029 831.873 78.4285C826.604 72.7541 820.524 68.4983 813.431 65.8637C806.338 63.2292 797.422 60.7973 786.681 58.3654C776.953 56.3388 770.063 54.5149 765.807 52.4883C761.348 50.6644 759.322 47.8272 759.322 43.9767C759.322 40.3289 761.146 37.289 764.794 34.8571C768.442 32.4252 774.116 31.2093 782.222 31.2093C794.787 31.2093 807.96 34.8571 821.538 42.1528L833.9 12.3621C827.01 8.30897 818.903 5.2691 809.986 3.24252C800.867 1.21595 791.747 0 782.425 0C768.644 0 757.093 2.02658 747.77 6.07973C738.448 10.1329 731.355 15.8073 726.694 22.6976C721.83 29.588 719.601 37.4917 719.601 46.0033C719.601 55.9335 722.033 63.8371 727.302 69.5116C732.368 75.3886 738.448 79.6444 745.744 82.279C752.837 84.9135 761.754 87.3454 772.495 89.5747C782.222 91.8039 789.113 93.8305 793.571 95.857C798.03 97.8836 800.259 100.721 800.259 104.774C800.259 112.475 792.558 116.325 777.156 116.325C769.049 116.325 760.74 115.11 752.432 112.475C743.92 110.043 736.624 106.598 730.342 102.342L717.169 131.93C723.857 136.794 732.571 140.442 743.515 143.279V143.279Z" fill="white"/>
</svg>
